<?xml version="1.0" encoding="UTF-8" standalone="no"?>
<!-- Created with Inkscape (http://www.inkscape.org/) -->

<svg
   width="1000"
   height="1000"
   viewBox="0 0 264.58332 264.58334"
   version="1.1"
   id="svg5"
   xmlns="http://www.w3.org/2000/svg"
   xmlns:svg="http://www.w3.org/2000/svg"
   xmlns:rdf="http://www.w3.org/1999/02/22-rdf-syntax-ns#"
   xmlns:cc="http://creativecommons.org/ns#"
   xmlns:dc="http://purl.org/dc/elements/1.1/">
  <defs
     id="defs2" />
  <metadata
     id="metadata856">
    <rdf:RDF>
      <cc:Work
         rdf:about="">
        <dc:creator>
          <cc:Agent>
            <dc:title>Inspire Studio</dc:title>
          </cc:Agent>
        </dc:creator>
        <cc:license
           rdf:resource="http://creativecommons.org/publicdomain/zero/1.0/" />
        <dc:description>Thank you for using this artwork. Feel free to visit our page https://www.pinterest.com.au/inspirestudiobox for more designs. We wish you have a wonderful day, everyday. Amitabha</dc:description>
      </cc:Work>
      <cc:License
         rdf:about="http://creativecommons.org/publicdomain/zero/1.0/">
        <cc:permits
           rdf:resource="http://creativecommons.org/ns#Reproduction" />
        <cc:permits
           rdf:resource="http://creativecommons.org/ns#Distribution" />
        <cc:permits
           rdf:resource="http://creativecommons.org/ns#DerivativeWorks" />
      </cc:License>
    </rdf:RDF>
  </metadata>
  <rect
     style="fill:#f7f7f7;fill-opacity:1;stroke:none;stroke-width:10.5833;stroke-linecap:square;stroke-miterlimit:4;stroke-dasharray:none;stroke-opacity:1;paint-order:stroke markers fill"
     id="rect32166"
     width="264.58334"
     height="264.58334"
     x="0"
     y="0" />
  <circle
     style="fill:none;stroke:#4d4d4d;stroke-width:7.9375;stroke-linecap:round;stroke-miterlimit:4;stroke-dasharray:none;stroke-opacity:1;paint-order:fill markers stroke"
     id="circle32172"
     cx="132.29169"
     cy="132.29167"
     r="63.5" />
  <g
     id="g51403"
     transform="translate(-317.94156,-8.9216529)">
    <ellipse
       style="fill:#0573e1;fill-opacity:1;stroke:none;stroke-width:4.76249;stroke-linecap:round;stroke-miterlimit:4;stroke-dasharray:none;stroke-opacity:1;paint-order:fill markers stroke"
       id="ellipse32170"
       cx="450.23325"
       cy="105.14062"
       rx="7.9375"
       ry="7.9918513" />
    <path
       id="rect47387"
       style="fill:#0573e1;fill-opacity:1;stroke-width:7.9375;stroke-linecap:round;paint-order:fill markers stroke"
       d="m 417.93224,113.4947 c -2.41608,0.0537 -4.44557,1.71672 -4.71165,3.99357 -0.29361,2.51238 1.6742,4.79251 4.41223,5.11249 l 18.35443,2.14501 c 2.1942,0.25642 3.88213,2.25413 3.89158,4.46297 0.03,7.02227 0.77086,14.34089 -0.65233,20.81562 l -6.23723,29.34357 c -0.57315,2.69643 0.95731,5.29064 3.43151,5.81656 2.47421,0.5259 4.9275,-1.22155 5.50064,-3.91799 l 6.23724,-29.34357 c 0.51867,-2.44014 3.72216,-2.00892 4.14917,0 l 6.23724,29.34357 c 0.57314,2.69644 3.02643,4.44389 5.50063,3.91799 2.47421,-0.52592 4.00467,-3.12013 3.43152,-5.81656 l -6.23723,-29.34357 c -1.43998,-6.18029 -0.98421,-13.84041 -0.7966,-20.81657 0.0594,-2.20735 1.84188,-4.2056 4.03608,-4.46203 l 18.35419,-2.145 c 2.73803,-0.31998 4.70585,-2.60011 4.41224,-5.11249 -0.29361,-2.51239 -2.73429,-4.27742 -5.47233,-3.95745 0,0 -20.95526,3.6859 -31.54021,3.6859 -10.58503,0 -31.54045,-3.6859 -31.54045,-3.6859 -0.25669,-0.03 -0.51074,-0.0417 -0.76067,-0.0361 z" />
  </g>
</svg>
